<svg height="512pt" viewBox="-13 0 512 512.07814" width="512pt" xmlns="http://www.w3.org/2000/svg"><path d="m271.613281 337.378906 6.699219.199219c4.601562.101563 8.902344 2.601563 11.300781 6.601563l18.800781 31.699218 28.199219-16.699218-203.898437-343.902344c-4.402344-7.5-14.101563-9.898438-21.601563-5.5-6.699219 4-9.5 12.300781-6.5 19.5l111.601563 270c9.296875 22.601562 31 37.5 55.398437 38.101562zm0 0" fill="#efefef"/><path d="m319.8125 328.277344-31.199219 18.5c-2.601562 1.5-3.398437 4.800781-1.898437 7.402344l69.097656 116.597656c.199219.300781.402344.601562.601562.902344 8.398438 14.796874 22.597657 26.296874 40.398438 30.796874 35.800781 9.101563 72.199219-13.296874 79.699219-49.898437 6.703125-32.601563-12.699219-65.398437-44.5-75.199219-16.296875-5-32.898438-3.300781-47.097657 3.5-12.199218 5.800782-26.800781 1.300782-33.699218-10.300781l-24-40.5c-1.5-2.398437-4.800782-3.300781-7.402344-1.800781zm66.699219 127c-8.597657-14.597656-3.796875-33.398438 10.703125-42 14.597656-8.597656 33.398437-3.800782 42 10.699218 8.597656 14.5 3.796875 33.402344-10.703125 42-14.5 8.703126-33.398438 3.800782-42-10.699218zm0 0" fill="#ff8c51"/><path d="m432.011719 377.476562c-16.296875-5-32.898438-3.296874-47.097657 3.5-5.101562 2.402344-10.5 3.101563-15.699218 2.203126 8.199218 10.898437 17.097656 21.199218 26.597656 31 .402344-.300782.902344-.601563 1.402344-.902344 14.597656-8.597656 33.398437-3.800782 42 10.699218 7.597656 12.902344 4.796875 29-6 38.601563 2.796875 9.699219 3.296875 20.199219 1.097656 30.601563-.597656 2.898437-1.398438 5.796874-2.398438 8.5 21.800782-6.703126 39.5-24.800782 44.5-49 6.898438-32.601563-12.601562-65.402344-44.402343-75.203126zm0 0" fill="#f26e3b"/><path d="m213.714844 337.378906-6.703125.199219c-4.597657.101563-8.898438 2.601563-11.296875 6.601563l-18.800782 31.699218-28.101562-16.800781 203.800781-343.800781c4.398438-7.5 14.101563-9.898438 21.601563-5.5 6.699218 4 9.5 12.300781 6.5 19.5l-111.601563 270c-9.300781 22.601562-31 37.5-55.398437 38.101562zm0 0" fill="#d8d8d8"/><path d="m276.3125 274.878906c0 19.828125-16.070312 35.898438-35.898438 35.898438-19.828124 0-35.902343-16.070313-35.902343-35.898438s16.074219-35.902344 35.902343-35.902344c19.828126 0 35.898438 16.074219 35.898438 35.902344zm0 0" fill="#465058"/><path d="m158.214844 330.179688-24 40.5c-6.902344 11.597656-21.5 16.097656-33.703125 10.296874-14.097657-6.699218-30.699219-8.5-47.097657-3.5-31.800781 9.800782-51.300781 42.601563-44.5 75.203126 7.597657 36.5 44 59 79.699219 49.898437 17.800781-4.5 32-16 40.398438-30.800781.203125-.300782.402343-.597656.601562-.898438l69.101563-116.699218c1.5-2.601563.699218-5.902344-1.902344-7.402344l-31.199219-18.5c-2.601562-1.5-5.898437-.597656-7.398437 1.902344zm-101.300782 135.796874c-14.601562-8.597656-19.402343-27.5-10.699218-42 8.597656-14.597656 27.5-19.398437 42-10.699218 14.5 8.699218 19.398437 27.5 10.699218 42-8.601562 14.5-27.5 19.402344-42 10.699218zm0 0" fill="#ff8c51"/><path d="m196.8125 346.777344-31.199219-18.5c-2.601562-1.5-5.898437-.699219-7.398437 1.902344l-24 40.5c-4.601563 7.796874-12.800782 12.398437-21.402344 12.796874l-19.800781 33.300782c10.703125 9.601562 13.402343 25.699218 5.902343 38.5-8 13.5-24.800781 18.601562-38.800781 12.402344-7.800781 7.398437-17.5 13-28.699219 15.898437-1.902343.5-3.800781.898437-5.699218 1.199219 15.699218 16.300781 39.398437 23.902344 62.898437 17.902344 17.800781-4.5 32-16 40.398438-30.800782.203125-.300781.402343-.601562.601562-.902344l69.101563-116.796874c1.5-2.5.699218-5.800782-1.902344-7.402344zm0 0" fill="#f26e3b"/><path d="m240.414062 318.277344c-23.902343 0-43.402343-19.5-43.402343-43.398438 0-23.902344 19.5-43.402344 43.402343-43.402344 23.898438 0 43.398438 19.5 43.398438 43.402344 0 24-19.5 43.398438-43.398438 43.398438zm0-71.800782c-15.699218 0-28.402343 12.800782-28.402343 28.402344 0 15.699219 12.800781 28.398438 28.402343 28.398438 15.699219 0 28.398438-12.800782 28.398438-28.398438 0-15.699218-12.800781-28.402344-28.398438-28.402344zm0 0"/><path d="m188.714844 240.378906c-2.902344 0-5.703125-1.699218-6.902344-4.601562l-84.097656-203.597656c-4.402344-10.601563-.203125-23 9.597656-28.902344 5.300781-3.199219 11.601562-4.097656 17.601562-2.5 6 1.5 11.097657 5.300781 14.199219 10.699218l92.5 156c2.101563 3.601563.898438 8.203126-2.601562 10.300782-3.597657 2.101562-8.199219.902344-10.296875-2.597656l-92.5-156.101563c-1.101563-1.898437-2.902344-3.199219-5-3.800781-2.101563-.5-4.300782-.199219-6.203125.902344-3.5 2.097656-5 6.5-3.398438 10.199218l84.101563 203.5c1.597656 3.800782-.203125 8.199219-4.101563 9.800782-1 .5-1.898437.699218-2.898437.699218zm0 0"/><path d="m290.511719 353.179688c-2.597657 0-5.097657-1.300782-6.5-3.703126l-.898438-1.597656c-1.101562-1.800781-2.898437-2.902344-5-2.902344l-6.699219-.199218c-11.402343-.300782-22.601562-3.398438-32.5-9-3.601562-2-4.902343-6.597656-2.800781-10.199219 2-3.601563 6.601563-4.898437 10.199219-2.800781 7.699219 4.402344 16.5 6.800781 25.402344 7l6.699218.199218c7.300782.203126 13.800782 4 17.5 10.300782l.898438 1.601562c2.101562 3.597656.902344 8.199219-2.597656 10.300782-1.101563.699218-2.402344 1-3.703125 1zm0 0"/><path d="m318.714844 336.476562c-2.601563 0-5.101563-1.296874-6.5-3.699218l-36.402344-61.398438c-2.097656-3.601562-.898438-8.199218 2.601562-10.300781 3.597657-2.101563 8.199219-.898437 10.300782 2.601563l36.398437 61.398437c2.101563 3.601563.898438 8.199219-2.601562 10.300781-1.199219.699219-2.5 1.097656-3.796875 1.097656zm0 0"/><path d="m194.8125 353.179688c-1.300781 0-2.597656-.300782-3.800781-1-3.597657-2.101563-4.699219-6.703126-2.597657-10.300782l.898438-1.601562c3.699219-6.300782 10.300781-10.097656 17.5-10.300782l6.699219-.199218c21.402343-.5 40.5-13.597656 48.703125-33.398438l111.597656-270c1.601562-3.800781.101562-8.199218-3.398438-10.199218-3.902343-2.300782-9-1-11.300781 2.898437l-186 313.601563c-2.101562 3.597656-6.699219 4.699218-10.300781 2.597656-3.597656-2.097656-4.699219-6.699219-2.597656-10.300782l186-313.597656c6.5-11 20.796875-14.699218 31.796875-8.101562 9.902343 5.902344 14 18.300781 9.601562 28.902344l-111.601562 270c-10.398438 25.296874-34.796875 42-62.199219 42.699218l-6.699219.199219c-2.101562 0-3.898437 1.101563-5 2.898437l-.898437 1.601563c-1.300782 2.300781-3.800782 3.601563-6.402344 3.601563zm0 0"/><path d="m413.113281 512.078125c-6 0-12.101562-.800781-18.101562-2.300781-19.199219-4.898438-35.097657-17-44.898438-34.199219l-.101562-.199219c-.199219-.300781-.296875-.5-.5-.800781l-69.199219-116.5c-3.597656-6.101563-1.597656-14.101563 4.5-17.699219l31.199219-18.5c3-1.800781 6.402343-2.300781 9.800781-1.402344 3.300781.902344 6.199219 3 7.902344 5.902344l24 40.398438c5 8.402344 15.296875 11.5 24 7.300781 16.398437-7.800781 35-9.199219 52.5-3.898437 35.296875 10.796874 57.199218 47.699218 49.699218 83.898437-4.101562 19.601563-15.601562 36.300781-32.601562 46.898437-11.699219 7.402344-24.898438 11.101563-38.199219 11.101563zm-118.898437-159.898437 68.097656 114.796874c.101562.101563.101562.203126.199219.300782l.300781.402344c.101562.097656.101562.199218.101562.199218 7.800782 13.699219 20.5 23.398438 35.699219 27.300782 15.398438 3.898437 31.199219 1.5 44.699219-6.902344 13.402344-8.398438 22.601562-21.597656 25.800781-37.199219 5.898438-28.699219-11.398437-57.898437-39.398437-66.5-13.800782-4.199219-28.601563-3.199219-41.601563 3-15.800781 7.5-34.5 1.898437-43.398437-13.199219l-22.902344-38.699218zm118.699218 125.597656c-13.101562 0-25.800781-6.699219-32.902343-18.699219-5.199219-8.800781-6.699219-19-4.199219-28.898437 2.5-9.902344 8.699219-18.203126 17.5-23.402344 8.800781-5.199219 19-6.699219 28.902344-4.199219 9.898437 2.5 18.199218 8.699219 23.398437 17.5 10.699219 18.101563 4.699219 41.601563-13.398437 52.300781-5.902344 3.699219-12.601563 5.398438-19.300782 5.398438zm-.101562-61.398438c-4.097656 0-8.199219 1.097656-11.800781 3.300782-5.296875 3.199218-9.097657 8.199218-10.597657 14.199218s-.601562 12.199219 2.5 17.597656c6.5 11 20.800782 14.601563 31.800782 8.101563s14.597656-20.800781 8.097656-31.800781c-3.199219-5.300782-8.199219-9.097656-14.199219-10.597656-1.898437-.5-3.800781-.800782-5.800781-.800782zm0 0"/><path d="m72.3125 512.078125c-13.398438 0-26.5-3.699219-38.199219-11.101563-17-10.597656-28.5-27.199218-32.601562-46.898437-7.5-36.199219 14.300781-73 49.703125-83.898437 17.398437-5.300782 36.097656-4 52.5 3.898437 8.699218 4.199219 19.097656 1 24-7.300781l24-40.5c1.796875-3 4.597656-5.097656 7.898437-5.898438 3.300781-.902344 6.800781-.402344 9.800781 1.398438l31.199219 18.5c6.101563 3.601562 8.199219 11.601562 4.5 17.699218l-69.101562 116.601563c-.199219.300781-.296875.5-.5.800781l-.097657.199219c-9.800781 17.199219-25.800781 29.300781-44.902343 34.199219-6.097657 1.601562-12.097657 2.300781-18.199219 2.300781zm.300781-130c-5.699219 0-11.398437.800781-16.898437 2.5-28 8.601563-45.300782 37.800781-39.402344 66.5 3.199219 15.601563 12.402344 28.800781 25.800781 37.199219 13.5 8.402344 29.300781 10.902344 44.699219 6.902344 15.199219-3.902344 27.902344-13.601563 35.699219-27.300782 0-.101562.101562-.199218.101562-.199218l.300781-.5c.097657-.101563.097657-.203126.199219-.402344l68.101563-114.800782-27.601563-16.398437-22.898437 38.699219c-8.902344 15.101562-27.601563 20.800781-43.402344 13.199218-7.800781-3.5-16.300781-5.398437-24.699219-5.398437zm-.101562 95.699219c-6.597657 0-13.296875-1.699219-19.398438-5.300782-8.800781-5.199218-15-13.5-17.5-23.398437s-1-20.199219 4.199219-28.898437c5.199219-8.800782 13.5-15 23.402344-17.5 9.898437-2.5 20.199218-1 28.898437 4.199218 8.800781 5.199219 15 13.5 17.5 23.398438 2.5 9.902344 1 20.199218-4.199219 28.902344-7.199218 11.898437-19.902343 18.597656-32.902343 18.597656zm-11.796875-18.199219c11 6.5 25.296875 2.898437 31.796875-8.101563 3.203125-5.296874 4.101562-11.597656 2.5-17.597656-1.597657-6-5.296875-11-10.597657-14.199218-5.300781-3.203126-11.601562-4.101563-17.601562-2.5-6 1.5-11 5.296874-14.199219 10.597656-3.199219 5.300781-4.101562 11.601562-2.5 17.601562 1.601563 6 5.300781 11 10.601563 14.199219zm0 0"/></svg>